<svg xmlns="http://www.w3.org/2000/svg" xmlns:xlink="http://www.w3.org/1999/xlink" viewBox="0 0 1417.32 1417.32"><defs><style>.cls-1{fill:#c76c5e;}.cls-2{fill:#863a51;}.cls-3{fill:url(#Nouvelle_nuance_de_dégradé_1);}.cls-4{fill:#7f7a74;}.cls-5{fill:#4ac1ba;}.cls-5,.cls-6,.cls-7,.cls-8{opacity:0.8;}.cls-6{fill:#6cc8be;}.cls-7{fill:#58c3bb;}.cls-8{fill:#43adb4;}.cls-9{fill:#999590;}.cls-10{fill:#e38b3e;}.cls-11{fill:#b6d664;}.cls-12{fill:#1a2b18;}.cls-12,.cls-13{opacity:0.04;}.cls-13,.cls-23{fill:none;}.cls-14{fill:#8e6b50;}.cls-15{fill:#997c60;}.cls-16{fill:#97a24d;}.cls-17{fill:#788938;}.cls-18{fill:#869b3d;}.cls-19{fill:#8d9f3f;}.cls-20{fill:#b26129;}.cls-21{fill:#ce8635;}.cls-22{fill:#c6822d;}.cls-24{fill:#6d451b;}.cls-25{fill:#cccccb;}.cls-26{fill:#c2c1c0;}.cls-27{fill:#a5a3a4;}.cls-28{fill:#5e81b9;}.cls-29{fill:#56779b;}.cls-30{fill:#446997;}.cls-31{fill:#cc6268;}.cls-32{fill:#b98d77;}.cls-33{fill:#a3725e;}.cls-34{fill:#c55152;}.cls-35{fill:#b24349;}.cls-36{fill:#5173a6;}.cls-37{fill:#a33842;}.cls-38{fill:#b5836e;}.cls-39{fill:#422e1b;}.cls-40{fill:#493620;}.cls-41{fill:#352517;}</style><linearGradient id="Nouvelle_nuance_de_dégradé_1" x1="323.37" y1="1032.69" x2="997.41" y2="643.54" gradientUnits="userSpaceOnUse"><stop offset="0" stop-color="#b6d663"/><stop offset="1" stop-color="#9bb856"/></linearGradient></defs><title>logofinal2</title><g id="Ile_1" data-name="Ile 1"><g id="Calque_3" data-name="Calque 3"><polygon class="cls-1" points="716.85 1084.61 791.87 1127.48 791.87 1202.5 716.85 1159.63 716.85 1084.61"/><polygon class="cls-2" points="641.83 1052.46 566.81 1095.33 566.81 1170.35 641.83 1127.48 641.83 1052.46"/><polygon class="cls-1" points="491.79 1052.46 566.81 1095.33 566.81 1170.35 491.79 1127.48 491.79 1052.46"/><polygon class="cls-1" points="641.83 1052.46 716.85 1095.33 716.85 1170.35 641.83 1127.48 641.83 1052.46"/><polygon class="cls-2" points="491.79 1052.46 416.77 1095.33 416.77 1170.35 491.79 1127.48 491.79 1052.46"/><polygon class="cls-2" points="820.45 804.77 745.43 847.64 745.43 922.66 820.45 879.79 820.45 804.77"/></g><polygon class="cls-1" points="416.77 1020.31 341.75 977.44 266.72 934.57 266.72 1009.59 341.75 1052.46 341.75 1127.48 416.77 1170.35 416.77 1095.33 491.79 1138.2 491.79 1063.18 416.77 1020.31"/><polygon class="cls-1" points="304.24 784.53 266.72 763.09 266.72 800.6 266.72 838.11 304.24 859.55 341.75 880.98 341.75 843.47 341.75 805.96 304.24 784.53"/><polygon class="cls-2" points="566.81 1020.31 491.79 1063.18 491.79 1138.2 566.81 1095.33 566.81 1020.31"/><polygon class="cls-1" points="566.81 1020.31 641.83 1063.18 641.83 1138.2 566.81 1095.33 566.81 1020.31"/><polygon class="cls-1" points="341.75 891.7 266.72 848.83 266.72 923.85 266.72 998.87 341.75 1041.74 416.77 1084.61 416.77 1009.59 416.77 934.57 341.75 891.7"/><polygon class="cls-2" points="1016.94 752.37 1016.94 677.35 941.91 720.22 941.91 744.72 909.76 763.09 909.76 838.11 941.91 819.74 941.91 859.55 941.91 880.98 941.91 891.7 866.89 934.57 791.87 977.44 716.85 1020.31 641.83 1063.18 641.83 1138.2 716.85 1095.33 716.85 1170.35 791.87 1127.48 791.87 1202.5 866.89 1159.63 941.91 1116.76 941.91 1041.74 941.91 966.72 1016.94 923.85 1016.94 891.7 1016.94 848.83 1016.94 838.11 1016.94 816.68 1016.94 763.09 984.78 781.46 984.78 770.75 1016.94 752.37"/><polygon class="cls-3" points="941.91 720.22 1016.94 677.35 941.91 634.48 866.89 677.35 791.87 634.48 716.85 677.35 641.83 634.48 566.81 677.35 491.79 634.48 266.72 763.09 341.75 805.96 266.72 848.83 341.75 891.7 266.72 934.57 416.77 1020.31 491.79 1063.18 566.81 1020.31 641.83 1063.18 716.85 1020.31 791.87 1063.18 866.89 1020.31 941.91 977.44 1016.94 934.57 941.91 891.7 1016.94 848.83 941.91 805.96 1016.94 763.09 941.91 720.22"/><g id="_lava_eau" data-name="++ lava eau"><polygon class="cls-2" points="416.77 934.57 341.75 977.44 341.75 1052.46 416.77 1009.59 416.77 934.57"/><polygon class="cls-4" points="416.77 934.57 491.79 977.44 491.79 1052.46 416.77 1009.59 416.77 934.57"/><g id="water"><polygon class="cls-5" points="416.77 945.29 341.75 998.87 416.77 1041.74 491.79 988.15 416.77 945.29"/><polygon class="cls-6" points="341.75 998.87 288.16 1063.18 363.18 1106.05 416.77 1041.74 341.75 998.87"/><polygon class="cls-7" points="288.16 1063.18 287.75 1417.32 363.18 1417.32 363.18 1106.05 288.16 1063.18"/><polyline class="cls-8" points="416.77 1041.74 416.77 1417.32 363.18 1417.32 363.18 1106.05 416.77 1041.74"/></g><polygon class="cls-1" points="416.77 1020.31 491.79 1063.18 491.79 1138.2 416.77 1095.33 416.77 1020.31"/><polygon class="cls-9" points="416.77 934.57 491.79 977.44 566.81 934.57 491.79 891.7 416.77 934.57"/><polygon class="cls-1" points="641.83 891.7 566.81 848.83 566.81 859.55 632.45 897.06 641.83 891.7"/><polygon class="cls-2" points="491.79 891.7 501.17 897.06 566.81 859.55 566.81 848.83 491.79 891.7"/><polygon class="cls-10" points="566.81 859.55 501.17 897.06 566.81 934.57 632.45 897.06 566.81 859.55"/><polygon class="cls-11" points="416.77 1020.31 491.79 1063.18 566.81 1020.31 491.79 977.44 416.77 1020.31"/></g><g id="Calque_12" data-name="Calque 12"><polygon class="cls-12" points="365.09 868.8 354.01 862.4 398.01 837 409.09 843.4 365.09 868.8"/><polygon class="cls-12" points="432.62 790.27 407.69 775.88 454.45 748.89 479.37 763.28 432.62 790.27"/><polygon class="cls-12" points="636.8 784.31 667.27 801.89 694.77 786.02 664.3 768.43 636.8 784.31"/><polygon class="cls-12" points="565.2 820.58 620.59 852.56 670.09 823.98 614.7 792 565.2 820.58"/><polygon class="cls-12" points="319.65 820.31 344.58 834.7 369.33 820.41 344.4 806.02 319.65 820.31"/><polygon class="cls-12" points="808.76 924.87 772.75 904.08 792.01 892.97 828.01 913.75 808.76 924.87"/><polygon class="cls-12" points="492.87 1006.81 526.1 1026 544.09 1010.33 510.86 991.14 492.87 1006.81"/><polygon class="cls-12" points="877.09 847.06 824.47 816.68 810.72 824.62 863.34 855 877.09 847.06"/><polygon class="cls-12" points="643.84 715.18 585 681.21 605.09 675 663.92 708.97 643.84 715.18"/><polygon class="cls-12" points="616.02 997.77 638.17 1010.56 657.42 999.45 635.27 986.66 616.02 997.77"/><polygon class="cls-12" points="414.59 918 400.24 911.3 493.74 857.31 508.09 864.01 414.59 918"/><polygon class="cls-12" points="737.06 934.28 687.21 905.5 706.46 894.39 756.31 923.17 737.06 934.28"/><polygon class="cls-12" points="999 850.52 920.53 805.21 920.53 805.21 999 850.52 999 850.52"/><polygon class="cls-12" points="918.5 827.35 885.45 808.27 898.05 801 931.09 820.08 918.5 827.35"/><polygon class="cls-13" points="571.74 752.34 546.82 737.95 571.57 723.66 596.49 738.05 571.74 752.34"/><polygon class="cls-12" points="734.63 843.9 723.55 837.5 767.55 812.1 778.63 818.5 734.63 843.9"/><polygon class="cls-12" points="888.04 711 855 691.92 867.59 684.65 900.64 703.73 888.04 711"/><polygon class="cls-12" points="921.59 932.21 943.75 945 963 933.88 940.85 921.09 921.59 932.21"/><polygon class="cls-12" points="450 677.12 472.15 689.91 491.41 678.79 469.25 666 450 677.12"/></g><polygon class="cls-1" points="716.85 1020.31 791.87 1063.18 791.87 1138.2 716.85 1095.33 716.85 1020.31"/><polygon class="cls-2" points="1016.94 934.57 941.91 977.44 941.91 1052.46 1016.94 1009.59 1016.94 934.57"/></g><g id="Calque_4" data-name="Calque 4"><polygon class="cls-14" points="791.87 505.88 791.87 580.9 791.87 655.92 791.87 730.94 791.87 805.96 866.89 763.09 866.89 688.07 866.89 613.05 866.89 538.03 866.89 463.01 791.87 505.88"/><polygon class="cls-15" points="716.85 463.01 716.85 538.03 716.85 613.05 716.85 688.07 716.85 763.09 791.87 805.96 791.87 730.94 791.87 655.92 791.87 580.9 791.87 505.88 716.85 463.01"/><g id="feuilles"><polygon class="cls-16" points="791.87 516.59 866.89 559.46 866.89 634.48 791.87 591.61 791.87 516.59"/><polygon class="cls-17" points="791.87 516.59 716.85 559.46 716.85 634.48 791.87 591.61 791.87 516.59"/><polygon class="cls-17" points="1166.98 387.99 1091.96 430.86 1016.94 473.72 941.91 516.59 866.89 559.46 866.89 634.48 941.91 591.61 1016.94 548.75 1091.96 505.88 1166.98 463.01 1242 420.14 1242 345.12 1166.98 387.99"/><polygon class="cls-16" points="641.83 516.59 566.81 473.72 491.79 430.86 416.77 387.99 341.75 345.12 341.75 420.14 416.77 463.01 491.79 505.88 566.81 548.75 641.83 591.61 716.85 634.48 716.85 559.46 641.83 516.59"/><polygon class="cls-16" points="341.75 259.38 416.77 302.25 416.77 377.27 341.75 334.4 341.75 259.38"/><polygon class="cls-17" points="1242 259.38 1166.98 302.25 1166.98 377.27 1242 334.4 1242 259.38"/><polygon class="cls-18" points="341.75 345.12 716.85 559.46 791.87 516.59 866.89 559.46 1242 345.12 1166.98 302.25 1242 259.38 866.89 45.03 791.87 87.9 716.85 45.03 341.75 259.38 416.77 302.25 341.75 345.12"/></g><g id="feuilles_2" data-name="feuilles 2"><polygon class="cls-17" points="866.89 312.96 791.87 355.83 791.87 430.86 866.89 387.99 866.89 312.96"/><polygon class="cls-17" points="1016.94 312.96 941.91 355.83 941.91 430.86 1016.94 387.99 1016.94 312.96"/><polygon class="cls-16" points="716.85 312.96 791.87 355.83 791.87 430.86 716.85 387.99 716.85 312.96"/><polygon class="cls-17" points="716.85 312.96 641.83 355.83 641.83 430.86 716.85 387.99 716.85 312.96"/><polygon class="cls-16" points="566.81 312.96 641.83 355.83 641.83 430.86 566.81 387.99 566.81 312.96"/><polygon class="cls-16" points="566.81 227.23 641.83 270.1 641.83 345.12 566.81 302.25 566.81 227.23"/><polygon class="cls-16" points="566.81 141.49 641.83 184.36 641.83 259.38 566.81 216.51 566.81 141.49"/><polygon class="cls-16" points="866.89 312.96 941.91 355.83 941.91 430.86 866.89 387.99 866.89 312.96"/><polygon class="cls-17" points="1016.94 227.23 941.91 270.1 941.91 345.12 1016.94 302.25 1016.94 227.23"/><polygon class="cls-17" points="1016.94 141.49 941.91 184.36 941.91 259.38 1016.94 216.51 1016.94 141.49"/><polygon class="cls-19" points="566.81 312.96 641.83 355.83 716.85 312.96 791.87 355.83 866.89 312.96 941.91 355.83 1016.94 312.96 941.91 270.1 1016.94 227.23 941.91 184.36 1016.94 141.49 941.91 98.62 866.89 141.49 791.87 98.62 716.85 141.49 641.83 98.62 566.81 141.49 641.83 184.36 566.81 227.23 641.83 270.1 566.81 312.96"/></g></g><g id="coffre"><polygon class="cls-20" points="920.48 744.62 859.03 779.73 859.03 841.17 920.48 806.06 920.48 744.62"/><polygon class="cls-21" points="797.59 744.62 859.03 779.73 859.03 841.17 797.59 806.06 797.59 744.62"/><polygon class="cls-22" points="797.59 744.62 859.03 779.73 920.48 744.62 859.03 709.5 797.59 744.62"/><polygon class="cls-23" points="801.52 803.92 855.1 834.54 855.1 797.97 801.52 767.35 801.52 803.92"/><polygon class="cls-23" points="801.52 761.49 855.1 792.11 855.1 781.87 801.52 751.25 801.52 761.49"/><polygon class="cls-23" points="914.63 744.41 859.33 712.81 804.04 744.41 859.33 776 914.63 744.41"/><polygon class="cls-23" points="862.97 792.11 916.55 761.49 916.55 751.25 862.97 781.87 862.97 792.11"/><polygon class="cls-23" points="862.97 834.54 916.55 803.92 916.55 767.35 862.97 797.97 862.97 834.54"/><path class="cls-24" d="M920.48,744.62,859,709.5l-61.45,35.11v61.45l57.52,32.87h0l3.93,2.25,3.93-2.25h0l57.52-32.87V744.62Zm-61.15-31.81,55.29,31.6L859.33,776,804,744.41ZM855.1,834.54l-53.58-30.62V767.35L855.1,798Zm0-42.43-53.58-30.62V751.25l53.58,30.62Zm61.45,11.81L863,834.54V798l53.58-30.62Zm0-42.43L863,792.11V781.87l53.58-30.62Z"/><g id="botn"><polygon class="cls-25" points="821.95 772.24 828.53 776.1 830.25 775.09 823.67 771.37 821.95 772.24"/><polygon class="cls-26" points="821.95 772.29 821.95 778.88 821.95 778.9 821.95 785.49 828.56 789.26 828.56 782.68 828.56 782.66 828.56 776.07 821.95 772.29"/><polygon class="cls-27" points="828.53 776.07 828.53 782.66 828.53 782.68 828.53 789.26 830.25 788.28 830.25 781.7 830.25 781.68 830.25 775.09 828.53 776.07"/></g></g><g id="Perso_2" data-name="Perso 2"><polygon class="cls-28" points="706.99 750.84 679.68 759.45 641.83 781.81 656.67 796.43 694.51 771.92 721.39 762.67 706.99 750.84"/><polygon class="cls-29" points="641.83 781.81 649.36 802.67 663.98 816.43 656.67 796.43 641.83 781.81"/><polygon class="cls-30" points="656.67 796.43 694.51 771.92 721.39 762.67 721.39 783.1 699.03 791.27 663.98 816.43 656.67 796.43"/><polygon class="cls-31" points="687.2 689.13 704.61 701.84 720.23 688.71 703.45 676.09 687.2 689.13"/><polygon class="cls-32" points="687.2 689.13 703.4 697.68 706.32 718.31 699.89 745.15 683.39 738.64 690.69 712.92 687.2 689.13"/><polygon class="cls-33" points="719.07 688.47 722.94 711.76 712.91 748.39 699.89 745.15 706.32 718.31 702.9 694.87 719.07 688.47"/><polyline class="cls-34" points="689.85 708.33 687.2 689.13 703.19 697.08 705.8 715.13"/><polyline class="cls-35" points="706.38 718.97 702.9 694.87 719.07 688.47 722.94 711.76"/><polygon class="cls-30" points="714.73 827.39 697.95 825.89 719.03 775.36 749.35 774.5 747.41 794.5 728.27 796.86 714.73 827.39"/><polyline class="cls-28" points="697.95 825.89 676.88 814.49 697.74 763.1 719.03 775.36 697.95 825.89"/><polyline class="cls-36" points="749.35 774.5 719.03 775.36 697.74 763.1 732.36 761.81 749.35 774.5"/><polygon class="cls-34" points="703.54 752.35 705.55 697.01 741.1 714.79 741.1 773.85 703.54 752.35"/><polyline class="cls-37" points="741.1 714.79 762.03 702.17 731.36 684.11 705.55 697.01"/><polygon class="cls-35" points="741.1 773.85 761.17 760.3 762.03 702.17 741.1 714.79 741.1 773.85"/><polygon class="cls-33" points="762.03 710.49 750.57 747.19 718.74 767.54 728.06 789.19 768.77 763.67 783.54 717.23 762.03 710.49"/><polygon class="cls-38" points="718.74 767.54 705.55 761.52 736.8 742.03 751.14 707.34 762.03 710.49 750.57 747.19 718.74 767.54"/><polygon class="cls-32" points="727.77 788.62 718.74 767.54 705.55 761.52 714.15 782.45 727.77 788.62"/><polyline class="cls-35" points="762.03 710.49 783.54 717.23 773.36 749.77 752.03 742.46 762.03 710.49"/><polygon class="cls-39" points="704.2 639.21 746.98 634.48 781.15 650.88 741.15 656.71 704.2 639.21"/><polyline class="cls-32" points="741.15 656.71 731.98 714.22 696.98 694.21 704.2 639.21"/><polyline class="cls-33" points="781.15 650.88 772.26 704.22 731.98 714.22 741.15 656.71 781.15 650.88"/><polygon class="cls-40" points="705.59 660.95 706.84 654.9 734.76 667.61 733.09 674.91 737.85 677.38 741.15 656.71 704.2 639.21 701.6 659.01 705.59 660.95"/><polygon class="cls-41" points="737.83 677.53 740.04 677.75 742.26 678.03 742.05 683.66 752.89 682.62 752.05 695.53 761.01 694.08 761.01 700.53 773.19 698.69 781.15 650.88 741.15 656.71 737.83 677.53"/><polygon class="cls-34" points="751.14 707.34 762.03 710.49 752.03 742.46 738.49 737.73 751.14 707.34"/></g></svg>